<?xml version="1.0" encoding="UTF-8" standalone="no"?>
<!DOCTYPE svg PUBLIC "-//W3C//DTD SVG 1.1//EN"
 "http://www.w3.org/Graphics/SVG/1.1/DTD/svg11.dtd">
<!-- Generated by graphviz version 2.43.0 (0)
 -->
<!-- Title: sourcetree Pages: 1 -->
<svg width="298pt" height="188pt"
 viewBox="0.00 0.00 297.50 188.00" xmlns="http://www.w3.org/2000/svg" xmlns:xlink="http://www.w3.org/1999/xlink">
<g id="graph0" class="graph" transform="scale(1 1) rotate(0) translate(4 184)">
<title>sourcetree</title>
<polygon fill="white" stroke="transparent" points="-4,4 -4,-184 293.5,-184 293.5,4 -4,4"/>
<!-- mulle&#45;multififo -->
<g id="node1" class="node">
<title>mulle&#45;multififo</title>
<polygon fill="yellow" stroke="black" points="189,-180 68,-180 68,-144 189,-144 189,-180"/>
<text text-anchor="middle" x="128.5" y="-158.3" font-family="Times,serif" font-size="14.00">mulle&#45;multififo</text>
</g>
<!-- mulle&#45;allocator -->
<g id="node3" class="node">
<title>mulle&#45;allocator</title>
<g id="a_node3"><a xlink:href="https://github.com/mulle-c/mulle-allocator" xlink:title="mulle&#45;allocator">
<polygon fill="lightgrey" stroke="black" points="123,-108 0,-108 0,-72 123,-72 123,-108"/>
<text text-anchor="middle" x="61.5" y="-86.3" font-family="Times,serif" font-size="14.00">mulle&#45;allocator</text>
</a>
</g>
</g>
<!-- mulle&#45;multififo&#45;&gt;mulle&#45;allocator -->
<g id="edge1" class="edge">
<title>mulle&#45;multififo&#45;&gt;mulle&#45;allocator</title>
<path fill="none" stroke="black" d="M111.94,-143.7C103.82,-135.22 93.91,-124.86 85.03,-115.58"/>
<polygon fill="black" stroke="black" points="87.31,-112.91 77.87,-108.1 82.26,-117.75 87.31,-112.91"/>
</g>
<!-- mulle&#45;thread -->
<g id="node5" class="node">
<title>mulle&#45;thread</title>
<g id="a_node5"><a xlink:href="https://github.com/mulle-concurrent/mulle-thread" xlink:title="mulle&#45;thread">
<polygon fill="lightgrey" stroke="black" points="249.5,-108 141.5,-108 141.5,-72 249.5,-72 249.5,-108"/>
<text text-anchor="middle" x="195.5" y="-86.3" font-family="Times,serif" font-size="14.00">mulle&#45;thread</text>
</a>
</g>
</g>
<!-- mulle&#45;multififo&#45;&gt;mulle&#45;thread -->
<g id="edge2" class="edge">
<title>mulle&#45;multififo&#45;&gt;mulle&#45;thread</title>
<path fill="none" stroke="black" d="M145.06,-143.7C153.18,-135.22 163.09,-124.86 171.97,-115.58"/>
<polygon fill="black" stroke="black" points="174.74,-117.75 179.13,-108.1 169.69,-112.91 174.74,-117.75"/>
</g>
<!-- mintomic -->
<g id="node2" class="node">
<title>mintomic</title>
<g id="a_node2"><a xlink:href="https://github.com/mulle-concurrent/mintomic" xlink:title="mintomic">
<polygon fill="lightgrey" stroke="black" points="185,-36 102,-36 102,0 185,0 185,-36"/>
<text text-anchor="middle" x="143.5" y="-14.3" font-family="Times,serif" font-size="14.00">mintomic</text>
</a>
</g>
</g>
<!-- mulle&#45;c11 -->
<g id="node4" class="node">
<title>mulle&#45;c11</title>
<g id="a_node4"><a xlink:href="https://github.com/mulle-c/mulle-c11" xlink:title="mulle&#45;c11">
<polygon fill="lightgrey" stroke="black" points="289.5,-36 203.5,-36 203.5,0 289.5,0 289.5,-36"/>
<text text-anchor="middle" x="246.5" y="-14.3" font-family="Times,serif" font-size="14.00">mulle&#45;c11</text>
</a>
</g>
</g>
<!-- mulle&#45;thread&#45;&gt;mintomic -->
<g id="edge3" class="edge">
<title>mulle&#45;thread&#45;&gt;mintomic</title>
<path fill="none" stroke="black" d="M182.65,-71.7C176.47,-63.39 168.96,-53.28 162.18,-44.14"/>
<polygon fill="black" stroke="black" points="164.98,-42.04 156.21,-36.1 159.36,-46.22 164.98,-42.04"/>
</g>
<!-- mulle&#45;thread&#45;&gt;mulle&#45;c11 -->
<g id="edge4" class="edge">
<title>mulle&#45;thread&#45;&gt;mulle&#45;c11</title>
<path fill="none" stroke="black" d="M208.11,-71.7C214.1,-63.47 221.38,-53.48 227.98,-44.42"/>
<polygon fill="black" stroke="black" points="230.98,-46.25 234.04,-36.1 225.32,-42.13 230.98,-46.25"/>
</g>
</g>
</svg>
